<?xml version='1.0' encoding='utf-8'?>
<svg xmlns:xlink="http://www.w3.org/1999/xlink" xmlns="http://www.w3.org/2000/svg" viewBox="0 0 808 633.33"> <defs> <linearGradient id="a"> <stop stop-color="#ffe51a" offset="0"/> <stop stop-color="#e60000" stop-opacity="0" offset="1"/> </linearGradient> <linearGradient id="c" x1=".3968" x2="1.0363" y1=".57736" y2="-.29057" xlink:href="#a"/> <radialGradient id="b" cx=".17182" cy=".10937" r="1.6589" xlink:href="#a"/> </defs> <path d="m163.11 183.71c46.51-15.445 75.766-14.864 118.39-12.889 30.822 5.0541 72.811 9.0907 121.78 41.33 30.114 17.276 65.928 50.892 86.481-19.953 16.59-78.736 74.668-84.754 88.964-89.13 7.0252-2.1502 17.524-2.7014 27.203-2.6874-11.577 9.7676-69.67 13.863-80.325 109.14 1.7157 68.7-26.024 105.34-89.115 114.57-33.397 5.3265-42.563 43.861-59.421 77.89-12.292 24.811-28.965 60.707-67.531 80.943-89.653 45.615-188.24 17.228-231-67.513-42.763-84.741-7.2649-187.38 79.287-229.25 1.8447-0.89232 3.4148-1.6201 5.2889-2.4515z" fill="#e60000" fill-rule="evenodd" stroke="#000" stroke-width="1.921"/> <path d="m166.07 193.14c43.728-14.662 62.929-12.946 103-6.401 34.091 8.242 74.317 31.642 117.98 62.758 62.876 28.544 84.923 17.391 102.82-8.085 9.891-28.646 4.95-76.664 41.154-102.82 7.364-5.077 31.651-23.81 39.992-26.832-16.954 13.067-27.558 26.165-40.429 41.697-21.215 25.602-16.421 46.123-17.633 80.507-2.13 25.253-11.639 46.059-38.88 56.786-18.208 6.254-23.981 5.334-42.636 8.338-31.4 5.056-49.338 71.913-63.59 103.42-27.608 48.247-29.861 54.772-64.116 74.68-84.291 43.303-176.98 16.355-217.19-64.091-40.205-80.445-6.8304-177.88 74.544-217.62 1.734-0.847 3.211-1.538 4.973-2.328z" fill="url(#c)" stroke-width=".836"/> <g fill-rule="evenodd"> <path d="m619.78 98.888c0-5.6993 10.615-4.8304 15.023-5.1991 16.945-1.4173 29.469 5.6348 45.229 5.9529 9.6323 0.19443 17.593-5.9312 25.515-10.364 0.71436-0.39976-1.4144 0.82571-2.139 1.2071-9.7247 5.1183-16.463 15.095-25.693 21.258-15.6 10.416-24.435 2.4732-38.158-6.016-6.2496-3.8663-11.752-5.3459-19.777-6.8395z" fill="#e60000" stroke="#000" stroke-width="1.921"/> <path d="m633.3 99.781c0-2.6909 12.484-0.77882 14.966-0.95288 9.5397-0.66917 16.09 6.1645 24.962 6.3147 5.4224 0.091774 9.9049-2.8004 14.364-4.8931 0.40271-0.18877-0.79626 0.38982-1.2042 0.5699-5.4752 2.4166-9.2682 7.1271-14.465 10.037-8.7825 4.9179-13.757 1.1677-21.482-2.8404-3.5186-1.8255-12.623-7.53-17.141-8.2352z" fill="url(#b)" stroke-width=".516"/> </g> </svg>