<?xml version='1.0' encoding='utf-8'?>
<svg xmlns="http://www.w3.org/2000/svg" viewBox="0 0 210.02 254.17"> <g fill="#65f3fa"> <path d="m113.5 24.717c-7.3335-7.3335-104.12 9.7134-104.12 9.7134l-4.1904 157.89s74.411-10.092 107.64-31.602c-1.9126-15.91 4.1465-53.157 4.1465-53.157s3.8535-75.509-3.48-82.842z"/> <path d="m134.65 51.343c-8.4853 12.89-12.162 101.87-13.09 109.84 6.5151-13.104 62.531 23.287 71.524 19.243 8.9941-4.044-0.58595-139.29 7.418-147.71-1.4317 0.23293-60.692 15.218-65.852 18.626z"/> </g> <path d="m190.03 181.19c-5.2725-3.374-70.218-29.049-70.218-29.049s-8.0581 56.648-3.1518 67.749c0.41553 0.94141 73.775-38.44 73.775-38.44s-0.13867-0.091797-0.40527-0.26074z" fill="#30eefb" fill-rule="evenodd"/> <path d="m118.17 153.87-42.154 14.052s-55.447 19.989-60.99 27.463c-2.9951 4.041 21.122 10.149 45.942 14.255-9.1699-2.0928 55.109-0.92383 55.109-0.92383s-0.067368-47.832 2.0923-54.846z" fill="#30eefb" fill-rule="evenodd"/> <g fill="#65f3fa"> <path d="m202.07 121.8c3.3652 1.7227 1.3242 1.9502 0 0z"/> <polygon points="189 185.38 189 185.37 189 185.37"/> <path d="m106.5 216.8c0-0.87598-0.68652-1.668-1.8149-2.3691-5.3174-0.45508-12.113-1.5986-19.018-2.999 6.6836 3.6494 13.626 5.4551 20.832 5.3682z"/> </g> <path d="m64.394 206.47c6.0068 1.584 13.703 3.4277 21.273 4.9639 6.9043 1.4004 13.7 2.544 19.018 2.999 6.0322 0.5166 10.161 0.14844 10.367-1.7383 0.11816-1.0772-4.1138-2.3106-10.415-3.5312-16.48-3.1943-47.141-6.3027-51.319-6.2978-1.2476 0.069336 3.6079 1.6357 11.076 3.6045z" fill="#63eef5" fill-rule="evenodd"/> <path d="m64.394 206.47c6.0068 1.584 13.703 3.4277 21.273 4.9639 6.9043 1.4004 13.7 2.544 19.018 2.999 6.0322 0.5166 10.161 0.14844 10.367-1.7383 0.11816-1.0772-4.1138-2.3106-10.415-3.5312-16.48-3.1943-47.141-6.3027-51.319-6.2978-1.2476 0.069336 3.6079 1.6357 11.076 3.6045z" fill="none"/> <g opacity=".85"> <g fill="#adfafc"> <path d="m54.808 202.28c-0.29004 0.13379-0.79883-0.94043-0.85938 0.19434 0.46826-0.83887-0.18604-0.25977 0.23047-0.12793 0.19141 0.19434 0.3877 0.046875 0.62891-0.066406z"/> <polygon points="54.14 204.32 54.351 204.34 54.544 204.26"/> <path d="m56.321 204.21c-0.38428-0.086914-0.75391-0.073242-1.1133-0.036133 0.31006 0.09375 0.67139 0.11328 1.1133 0.036133z"/> <path d="m54.597 203.86c0.12646 0.15039 0.18359 0.30371-0.042969 0.39844l-0.0093 2e-3 0.6631-0.0879-0.6108-0.3125z"/> <path d="m54.597 203.86c-0.12305-0.14746-0.32129-0.28711-0.38574-0.36621l0.3857 0.3662z"/> <path d="m55.354 200.51c0.23682-0.091797 0.12207 0.86328 0.58594 0.67676 1.0664-0.19141 1.9966-0.55371 2.9727-0.47069 0.46289-0.17677 1.0688 0.94629 1.5288 0.77147 1.0635-0.17772 3.8423-1.2041 2.271-1.2969-2.3701-0.084961-3.9326 0.041016-6.0835 0.052734-0.90234 0.1328-1.7324 0.27539-2.6865 0.4541-0.70361 0.19434 0.58154-0.24609-1.752 0.46875-2.1611 3.3896-0.11523 2.832-0.32861 3.2373 0.28223 0.26465 0.90039 0.56934 0.9043 0.51856 0.5127 0.10644 1.0283 0.2168 1.4722 0.26562 0.5 0.12401 0.93018 0.35059 1.3584 0.54688-0.53857-0.31641-1.1074-0.67871-1.727-1.0381-0.21338-0.15625-0.46729-0.22949-0.76367-0.26172-0.072269 0.018539-0.37207-0.025391-0.8208-0.31738l-0.5371-0.4346c-0.77051-0.1748 0.65234-2.958 1.4526-2.4834 0.82956-0.29588 1.3906-0.62987 2.1533-0.68944z"/> <path d="m63.528 205.46c-0.23975 0.047852-0.72363 0.14062-0.72363 0.14062-0.77246-0.91797-1.833-0.93945-2.9033-0.95703l0.312 0.584c0.58594 0.10644 0.72314-0.1338 0.27393-0.47656 1.0005 0.88965 2.082 1.2725 3.2354 1.4795-0.003422-0.27051 0.088379-0.55664-0.19434-0.77051z"/> <polygon points="64.404 206.33 63.723 206.23 63.725 206.32 64.422 206.36"/> <path d="m61.06 203.73c2.9336 0.23535 5.6856 0.56152 8.3652 0.94531 0.22705-0.16406 0.39502-0.36426 0.66113-0.22266 0.19189 0.18848 0.39258 0.31445 0.59424 0.4082l1.1685 0.1816 0.4224-0.0283 0.0117-0.0039c0.23242-0.083969 0.18359-0.23828 0.062996-0.39354l-0.3726-0.3916c0.067383 0.087891 0.25488 0.23926 0.37257 0.3916l0.602 0.3408c0.36475-0.019531 0.74316-0.011734 1.123 0.086899-0.44287 0.064453-0.81299 0.022461-1.123-0.086899l-0.6768 0.0566-0.2007 0.0644 2.6631 0.4385 0.5693-0.0117c0.66064-0.051758 1.3198-0.10352 1.6636 0.40625l0.4746 0.086-0.0815-0.0967 0.1685 0.1104 2.0083 0.3691c0.45898-0.12598 0.93799-0.2959 1.4067-0.37598 0 0 0.26514 0.35449 0.39453 0.53125 0.21338-0.21484 0.49561-0.33984 0.81299-0.38184-0.3291-0.33008-0.62109-0.68555-0.90723-0.91894-0.396-0.53224-1.1338 0.83104-1.5591-0.13379 0.42529 0.96483 1.1631-0.39845 1.5591 0.13379 0.28612 0.2334 0.57812 0.58887 0.90723 0.91894 0.66016-0.087891 1.4653 0.18945 2.0703 0.73926-0.87793 0.2959-1.522-0.18457-2.0703-0.73926-0.31738 0.041992-0.59961 0.16699-0.81299 0.38184-0.12939-0.17676-0.39453-0.53125-0.39453-0.53125-0.46875 0.080078-0.94775 0.25-1.4067 0.37598l3.9854 0.749c8.645 1.7705 16.828 2.7324 25.469 5.1748 1.1309 0.35742 2.2905 0.73828 3.207 1.1894 0.45215 0.10644 0.92284 0.6875 0.89404 0.37108 0.38623-0.5127 1.1899-1.0137 1.1099-1.1006 0.078117-0.083969 0.20068-0.13574 0.33838-0.12891l0.105 0.0146c-1.8335-0.19922-0.52148-0.058594-0.93604-0.10449l-0.0371-0.0156c0.01416-0.041992-0.01123 0.010727-0.59033-0.55664-0.78174-0.84863-3.3232-0.12402-5.373-0.75978-8.6543-1.5996-17.294-2.1055-25.871-6.3662-3.3032-1.5869-9.8564-2.6445-13.208-3.4238-4.8633 0.39941-3.6094 4.9736-3.4414 5.2559 1.918 4.1191 4.585 2.8066 9.8599 6.1523-3.6436-2.0488 3.3706-1.5117 6.5913 1.6094 4.6782 4.7481 12.998 3.4053 19.851 5.1231 1.7354 0.4375 3.6162 0.4834 5.8721 0.62793 1.4756 0.19823 2.9165 0.35254 4.7109 0.2334 1.8184-0.73535 3.5693 1.1631 8.1211-4.3574 0.43457-0.82129 0.73877-1.75 0.88477-2.6221 0.28955-1.4482-0.59619-4.168-1.5796-5.1289-0.75391-0.86328-2.2148-1.8594-2.5068-1.9316-1.1948-0.62599-1.9263-0.83008-2.751-1.1201-1.5039-0.45409-2.8809-0.76659-4.2324-1.0342-5.3638-1.0234-10.547-1.5176-16.04-2.4863-2.9175-0.4209-5.5947 0.1123-8.1016 0.27344-1.8062-0.069336-3.6543-0.78319-5.1074-0.95604-2.2842-0.27832-4.291-0.16797-6.2197 0.03125 2.1226 0.073242 3.6894-0.011719 6.0513 0.1377 1.5703 0.13574-1.2378 1.0859-2.3018 1.2314-0.46728 0.16113-1.0366-0.97852-1.5059-0.81641-0.96289-0.11035-1.8965 0.20898-2.9604 0.36523-0.46729 0.16309-0.30811-0.78613-0.5415-0.70508-1.4356 0.058578-2.6543 1.1602-3.5259 0.80469-0.66797-0.21484-1.2695-0.42773-1.8555-0.63867-0.3745-0.09375-0.74805-0.17578-1.1548-0.17871l-0.792 0.1621c0.17529 0.31348 0.21289 0.67773 0.24414 1.0449-0.36621-0.089844-0.87012-0.35449-1.2368-0.44434 0.3667 0.089828 0.87061 0.35449 1.2368 0.44434-0.03125-0.36719-0.068848-0.73144-0.24414-1.0449-1.9141 0.37109-4.1035 0.66699-6.1318 0.9043l0.0195 0.0879c1.1738 9.92e-4 2.2998 0.20312 3.4497 0.89648-0.50098-0.25977-0.41162-0.51953 0.18896-0.51953l0.4092 0.5215c-1.0625 0.16894-2.1182 0.34277-3.0347-0.44043 0 0-0.46338 0.17479-0.69238 0.26367-0.31592-0.16113-0.27441-0.45996-0.3208-0.72168l-0.6939 0.0156c0.44486 0.51858 1.9131 1.2627 1.9121 1.2666z"/> <path d="m72.971 204.99-0.5659 0.0137 2.2344 0.3828c-0.34424-0.51074-1.0059-0.45215-1.6685-0.39648z"/> </g> </g> <g opacity=".56"> <path d="m205.51 97.746c0.10547-0.52734-3.0371-56.046-2.3398-57.345 0.64941-1.2046-70.373-18.204-70.373-18.204s-11.142 164.29-0.53027 169.56c10.611 5.2705 13.215-50.139 14.499-60.821 0.36229-3.0098 0.78809-5.9131 1.3018-8.2764 0.62305-2.8779 0.24608-47.246 7.3545-48.563 0.13866-0.025391 0.27637-0.041992 0.41309-0.04834 6.8457-0.3418 11.566 36.419 4.2285 54.277-1.165 2.834-2.2949 5.666-3.3711 8.4619-0.30176 0.7832-7.501 21.31-8.9082 28.567-1.5195 7.832-1.2461 13.381 1.8203 14.886 0.17383 0.085938 0.54883 16.367 6.7266 16.308 5.5508-0.053711 28-9.7188 28.074-10.06 0.52148-2.3887 20.058-16.685 20.058-16.685s-0.66994-63.507 1.0469-72.06z" fill="#d8fcfd" fill-rule="evenodd"/> </g> <path d="m198.31 26.486c-4.2188 2.4375-5.4727 13.223-5.2949 26.514 0.041992 3.1548 0.16603 6.4507 0.3506 9.811 0.27147 4.9898 0.67578 10.118 1.1465 15.132 0.74513 7.9448 1.6562 15.593 2.4658 21.935 0.89941 7.0542-2.7969 74.142-4.919 74.596 0.14551-3.2051-1.1982 0.36523-0.21582 0.098633-0.091797 3.6279-0.70801 10.101 0.40723 13.776 6.1602 1.3272 10.42-14.685 12.701-21.459-0.31152 4.2012 4.4365-28.496 5.0566-49.473 0.12598-6.1865-1.8662-96.608-11.698-90.931z" fill="#63eef5"/> <g fill="#d8fcfd" fill-rule="evenodd"> <path d="m164.5 97.8c-1.084 6.5991-8.3438 11.79-2 18 2.8604-3.1602 4.502-12.804 2-18z"/> <path d="m130.5 14.8c-3.3408-3.4688-7.3408-5.8022-12-7-5.21 10.068-1.21 12.401 12 7z"/> </g> <line x1="5.3013" x2="131.59" y1="30.583" y2=".46826" fill="none"/> <g opacity=".85"> <g fill="#4af0fc"> <path d="m120.9 1.6538-1.2739 0.2534c0.22754 0.01611 0.46191 0.06934 0.71631 0.18213 0.30127 0.0415 0.39552-0.20118 0.55762-0.43555z"/> <polygon points="118.44 2.1362 118.22 2.1797 118.05 2.3096"/> <path d="m116.3 2.8994c0.40039-0.04053 0.76514-0.16113 1.1099-0.30566-0.33398 0.00537-0.70312 0.09082-1.1099 0.30566z"/> <path d="m118.11 2.709c-0.16797-0.10645-0.26904-0.23584-0.070801-0.39453l0.0083-0.0049-0.6328 0.2842c0.25-0.00244 0.48438 0.03955 0.69531 0.11523z"/> <path d="m118.11 2.709c0.1626 0.10303 0.3999 0.1792 0.48926 0.23975l-0.4893-0.2397z"/> <path d="m118.34 6.1411c-0.19678 0.15674-0.3672-0.78955-0.75586-0.47656-0.96632 0.50781-1.7466 1.1367-2.7095 1.3682-0.38818 0.31445-1.3272-0.55664-1.7148-0.24316-0.96924 0.50879-3.3027 2.3911-1.7646 1.9648 2.3003-0.69531 3.7612-1.3106 5.814-1.9819 1.6123-0.78076 3.1416-1.6172 4.8032-2.3711 0.47754-0.16064 0.9502-0.19678 1.4238-0.24316-0.6338-0.00244-1.2803 0-1.9936 0.02441-0.95703-0.04346-1.752 1.4116-3.1025 1.9585z"/> <path d="m130.33 0c-0.19238 0.15723-0.58398 0.47119-0.58398 0.47119-1.1396-0.43848-2.1064 0.07031-3.0732 0.57764l0.5684 0.3574c0.57617-0.19434 0.58203-0.47119 0.010742-0.55029 1.333 0.28125 2.4863 0.09863 3.623-0.27295-0.13281-0.23633-0.1875-0.53174-0.54492-0.58301z"/> <polygon points="131.54 0.34375 130.88 0.58301 130.92 0.6582 131.57 0.36035"/> <path d="m111.84 4.8657c-2.9146 0.73438-5.6768 1.3457-8.3862 1.895-0.16309 0.23193-0.25732 0.47705-0.56104 0.43408-0.24854-0.1123-0.48486-0.16455-0.71045-0.18262l-1.1855 0.231-0.396 0.1719-0.0102 0.0073c-0.19482 0.15869-0.095207 0.28711 0.07373 0.39209l0.4912 0.2402c-0.094238-0.06006-0.32617-0.13721-0.49121-0.24023-0.21338-0.07373-0.44141-0.11865-0.69482-0.11377-0.34424 0.14307-0.71045 0.26611-1.1094 0.30371 0.40332-0.2124 0.77344-0.30029 1.1094-0.30371l0.6314-0.2856 0.1704-0.1299-2.7095 0.5049-0.543 0.2104c-0.61621 0.27881-1.2305 0.55713-1.7373 0.19922l-0.4854 0.0854 0.1123 0.062-0.2012-0.0454-2.0542 0.3628c-0.396 0.28076-0.79491 0.60889-1.2153 0.8501 0 0-0.37891-0.23828-0.56593-0.35791-0.12793 0.27734-0.354 0.49414-0.64258 0.646 0.43164 0.19238 0.83691 0.42139 1.1929 0.53857 0.56592 0.3584 0.79199-1.1792 1.5381-0.42627-0.74609-0.75293-0.97217 0.78467-1.5381 0.42627-0.35596-0.11719-0.76123-0.34619-1.1929-0.53857-0.6001 0.31934-1.4678 0.3501-2.2432 0.05371 0.73389-0.5918 1.522-0.37646 2.2432-0.05371 0.28857-0.15186 0.51465-0.36865 0.64258-0.646 0.18701 0.11963 0.56593 0.35791 0.56593 0.35791 0.42041-0.24121 0.81934-0.56934 1.2153-0.8501l-4.083 0.7197c-8.9292 1.5-17.008 3.5386-26.23 5.273-5.0029 0.90771-9.8428 1.6392-14.627 2.2017-9.5396 1.1245-17.707 4.394-27.644 4.2734-3.7954 0.031731-10.368 2.0718-13.814 2.9961-4.2783 2.6587-0.91309 6.0918-0.64062 6.2661 3.6714 2.7339 5.4551 0.30469 11.755 0.92334-4.2373-0.19434 2.4014-2.8955 6.7041-1.4487 6.2681 2.273 13.315-2.4209 20.217-3.103 1.7261-0.16943 3.4629-0.75439 5.478-1.1602 10.647-1.2573 19.91-5.061 30.866-7.3823 2.8838-0.69775 5.2129-2.168 7.5303-3.2222 1.7368-0.5835 3.7427-0.57764 5.1856-0.92285 2.2671-0.54932 4.1426-1.3423 5.915-2.1992-2.0498 0.66943-3.5176 1.2842-5.814 1.9805-1.541 0.42822 0.79492-1.4551 1.7617-1.9639 0.39014-0.31396 1.3296 0.55762 1.7202 0.24219 0.95752-0.22998 1.7378-0.8584 2.7031-1.3672 0.39111-0.31396 0.56299 0.6333 0.75879 0.47705 1.3516-0.54639 2.1465-2.0024 3.1035-1.96 0.71289-0.02344 1.3613-0.025391 1.9932-0.02441 0.39062-0.03906 0.77637-0.08691 1.1675-0.21875l0.7065-0.4165c-0.27196-0.2373-0.42871-0.56885-0.58057-0.9043 0.38232-0.0376 0.95361 0.04443 1.3364 0.00781-0.3828 0.03662-0.95409-0.04541-1.3364-0.00781 0.15186 0.33545 0.30859 0.66699 0.58057 0.9043 1.7148-0.98828 3.7261-1.9893 5.6089-2.8633l-0.0464-0.0767c-1.1348 0.37061-2.2837 0.5542-3.6206 0.27295 0.56885 0.08203 0.56689 0.35693-0.012703 0.55322l-0.5649-0.3584c0.96875-0.50879 1.9356-1.0181 3.0723-0.57812 0 0 0.39209-0.31396 0.58545-0.47119 0.35742 0.05127 0.4126 0.34766 0.54053 0.58154l0.6655-0.2373c-0.59278-0.34962-2.2549-0.58546-2.2549-0.58546z"/> <path d="m99.94 7.6797 0.5395-0.2075-2.2788 0.4092c0.50584 0.35888 1.1216 0.0791 1.7392-0.20166z"/> </g> </g> <path d="m129.44 49.275s3.2529-33.973 3.5166-34.927c0 0-6.7022-7.6836-6.334-8.7812 0 0-10.15 26.248-10.072 31.82 3.2949 9.3008-0.12694 21.69-0.077148 30.288-0.39941 4.1226-0.37988 21.129-0.37988 21.129l-0.7637-0.1665c-0.25586 7.522 6.4336 40.622 8.2842 40.519 0 0 4.1396-6.8779 5.2568-9.1953-0.49709-1.6445 0.87987-48.396 0.56932-70.686z" fill="#30eefb"/> <path d="m115.47 159.18" fill="none"/> <polygon points="115.47 159.18 115.47 159.18 115.47 159.18 115.47 159.18 115.47 159.18 115.47 159.18 115.47 159.18 115.47 159.18 115.47 159.18 115.47 159.18 115.47 159.18 115.47 159.18 115.47 159.18 115.47 159.18 115.47 159.18 115.47 159.18 115.47 159.18 115.47 159.18 115.47 159.18 115.47 159.18 115.47 159.18 115.47 159.18 115.47 159.18 115.47 159.18 115.47 159.18 115.47 159.18 115.47 159.18 115.47 159.18 115.47 159.18 115.47 159.18 115.47 159.18 115.47 159.18 115.47 159.18 115.47 159.18 115.47 159.18 115.47 159.18 115.47 159.18 115.47 159.18 115.47 159.18 115.47 159.18 115.47 159.18 115.47 159.18 115.47 159.18 115.47 159.18 115.47 159.18 115.47 159.18 115.47 159.18 115.47 159.18 115.47 159.18 115.47 159.18 115.47 159.18 115.47 159.18 115.47 159.18 115.47 159.18 115.47 159.18 115.47 159.18 115.47 159.18 115.47 159.18 115.47 159.18 115.47 159.18 115.47 159.18 115.47 159.18 115.47 159.18 115.47 159.18 115.47 159.18 115.47 159.18 115.47 159.18 115.47 159.18 115.47 159.18 115.47 159.18 115.47 159.18 115.47 159.18 115.47 159.18 115.47 159.18 115.47 159.18 115.47 159.18 115.47 159.18 115.47 159.18 115.47 159.18 115.47 159.18 115.47 159.18 115.47 159.18 115.47 159.18 115.47 159.18 115.47 159.18 115.47 159.18 115.47 159.18 115.47 159.18 115.47 159.18 115.47 159.18 115.47 159.18 115.47 159.18 115.47 159.18 115.47 159.18 115.47 159.18 115.47 159.18 115.47 159.18 115.47 159.18 115.47 159.18 115.47 159.18 115.47 159.18 115.47 159.18 115.47 159.18 115.47 159.18 115.47 159.18 115.47 159.18 115.47 159.18 115.47 159.18 115.47 159.18 115.47 159.18 115.47 159.18 115.47 159.18 115.47 159.18 115.47 159.18 115.47 159.18 115.47 159.18 115.47 159.18 115.47 159.18 115.47 159.18 115.47 159.18 115.47 159.18 115.47 159.18 115.47 159.18 115.47 159.18 115.47 159.18 115.47 159.18 115.47 159.18 115.47 159.18 115.47 159.18 115.47 159.18 115.47 159.18 115.47 159.18 115.47 159.18 115.47 159.18 115.47 159.18 115.47 159.18 115.47 159.18 115.47 159.18 115.47 159.18" fill="#30eefb"/> <line x1="132.55" x2="132.55" y1="213.63" y2="213.63" fill="none" stroke="#65f3fa"/> <path d="m150.39 211.96s16.398-5.0127 17.848-5.9287c1.4512-0.91504 2.5898-2.5303 2.5791-2.8066 0.12695-0.098633 3.1162-2.9609 2.4775-3.0508 0.76172-0.92578 2.3018-1.6221 3.4766-1.9756 0 0 30.47-18.7 24.066-20.2l0.1191 0.1514c-10.468 2.0898-22.158 8.1191-30.73 13.562l0.1152-0.0312c-5.1709 2.8779-12.322 4.168-15.046 7.1113-2.7227 2.9394-22.726 7.6885-23.188 8.6104-0.4756 0.94824-4.6192 2.5488-4.0098 3.0322 0.060562-0.026367-7.3428 4.1875-7.3428 4.1875-0.31494 1.2959-0.76953 2.4248-0.22754 3.5684 0.54297 1.1445 3.1465 0.67871 3.1465 0.67871 0.72656-0.69824 7.7422-2.2666 7.7422-2.2666 0.13574 0.066406 9.9834-0.8877 9.8164-1.2471" fill="#65f3fa"/> <polygon points="115.19 216.44 4.5112 191.03 5.522 27.287 115.88 58.028" fill="none"/> <path d="m117.24 212.2c-36.894-8.4697-73.788-16.94-110.68-25.409 0.81982 0.95801 1.6401 1.917 2.4604 2.876 0.30566-49.57 0.61182-99.141 0.91797-148.71 0.03076-5.0117 0.06152-10.023 0.09277-15.036l-6.562 5.6128c36.785 10.247 73.569 20.494 110.35 30.741-0.81982-0.95898-1.6401-1.9175-2.4604-2.8765-0.2124 49.197-0.42432 98.394-0.63672 147.59-0.015625 3.6084-0.03125 7.2178-0.046883 10.826-0.024902 5.7441 9.002 1.9482 9.0225-2.7363 0.2124-49.197 0.42432-98.394 0.63672-147.59 0.015617-3.6084 0.03125-7.2168 0.046883-10.826 0.006348-1.5088-1.1148-2.5015-2.4604-2.8765-36.785-10.247-73.569-20.494-110.35-30.741-3.2041-0.89258-6.5435 2.6191-6.562 5.6128-0.30566 49.571-0.61182 99.141-0.91797 148.71-0.03076 5.0117-0.06152 10.023-0.09277 15.035-0.00879 1.46 1.1074 2.5654 2.4604 2.876 36.894 8.4707 73.788 16.94 110.68 25.411 4.5982 1.0547 9.7559-7.1914 4.1016-8.4902z" fill="#65f3fa"/> <g opacity=".62"> <path d="m1.8335 28.05c0 4.998 39.608 8.3691 61.241 11.395 22.574 2.521 35.741 0 52.202 14.119 7.5239-15.632-2.352-29.75 2.3506-47.902-27.276-2.0176-54.552 16.64-81.829 19.161-13.168 1.0083-33.964-1.77-33.964 3.228z" fill="#d8fcfd"/> </g> <path d="m172.77 29.334s-22.846-7.8955-22.296-8.1108c-0.83398-0.83447-33.609-15.405-28.215-18.193l-0.0776 0.1841c9.6123 0.23047 20.995 4.3848 29.52 8.5088l-0.1064-0.0117c5.0732 2.0596 11.614 2.0728 14.535 4.6611s21.422 3.8237 21.993 4.7095c0.58496 0.91113 4.5254 1.8174 4.0723 2.4404-0.057617-0.015139 7.2188 3.0337 7.2188 3.0337 0.50586 1.3057 1.1065 2.4102 0.82716 3.7192-0.28027 1.3096-2.6611 1.3081-2.6611 1.3081-0.76367-0.6001-7.2373-0.93115-7.2373-0.93115-0.10644 0.09766-8.9717 0.94434-8.8877 0.53711l-8.6846-1.855z" fill="#65f3fa"/> <g opacity=".71"> <path d="m119.71 31.783c0.32812-2.2012 0.3833-4.252 0.33838-6.2769-40.944 7.4863-108.61 21.043-108.61 21.043s-3.1289 24.596 1.0205 54.025c0.1958 2.4058-6.0903 86.923-1.2554 91.764 4.8345 4.8438 13.918 7.9043 26.114 7.9522-0.01025-0.005859 37.299 6.0732 37.316 6.0664-2.5596 0.58789 14.642 5.3516 16.627-0.023438 1.9863-5.373-6.2666-13.903-10.43-18.074-4.1636-4.169-24.196 4.4443-29.698-1.0674-5.5015-5.5098-17.101-7.5156-17.039-9.0693 0.056149-1.4375 23.13-5.4434 23.55-24.962 0.42041-19.518-14.64-76.06-5.6748-76.06 8.9653 0 29.408 102.97 38.277 107.47 8.8696 4.501 19.143-13.182 19.143-13.182 0.92675-9.209 3.8877-116.24 10.318-139.6z" fill="#d8fcfd" fill-rule="evenodd"/> </g> <g opacity=".51"> <path d="m198.32 31.859c0.1123 5.5264-51.132 27.578-64.735 24.116-13.604-3.4614-0.14356-30.188-3.584-48.471 11.56-2.0679 27.354 15.228 45.61 17.6 7.2393 0.72949 22.597 1.2305 22.709 6.7559z" fill="#65f3fa"/> </g> </svg>