<?xml version='1.0' encoding='utf-8'?>
<svg xmlns:xlink="http://www.w3.org/1999/xlink" xmlns="http://www.w3.org/2000/svg" viewBox="0 0 490.63 430.13"> <defs> <filter id="v"> <feGaussianBlur stdDeviation="4.2975"/> </filter> <linearGradient id="a"> <stop offset="0"/> <stop stop-opacity="0" offset="1"/> </linearGradient> <linearGradient id="r" x1="208.95" x2="87.494" y1="496.48" y2="445.15" gradientUnits="userSpaceOnUse"> <stop offset="0"/> <stop stop-opacity=".5098" offset=".48648"/> <stop stop-opacity="0" offset="1"/> </linearGradient> <linearGradient id="c" x1="241.7" x2="426.47" y1="595.76" y2="267.8" gradientUnits="userSpaceOnUse"> <stop stop-color="#666" offset="0"/> <stop stop-color="#cecece" offset=".47074"/> <stop stop-color="#666" offset="1"/> </linearGradient> <linearGradient id="u" x1="569.21" x2="540.57" y1="299.56" y2="462.91" gradientUnits="userSpaceOnUse" xlink:href="#a"/> <linearGradient id="t" x1="335.02" x2="451.47" y1="735.58" y2="604.9" gradientUnits="userSpaceOnUse" xlink:href="#a"/> <linearGradient id="s" x1="479.7" x2="405.68" y1="520.25" y2="482.55" gradientUnits="userSpaceOnUse" xlink:href="#a"/> <linearGradient id="q" x1="247.63" x2="180.52" y1="577.6" y2="569.85" gradientUnits="userSpaceOnUse" xlink:href="#a"/> <linearGradient id="p" x1="280.11" x2="199.03" y1="567.79" y2="460.37" gradientUnits="userSpaceOnUse" xlink:href="#a"/> <linearGradient id="o" x1="293.65" x2="246.96" y1="610.27" y2="576.79" gradientTransform="matrix(-.5 .86603 -.86603 -.5 873.36 370.64)" gradientUnits="userSpaceOnUse" xlink:href="#a"/> <linearGradient id="n" x1="352.56" x2="449.53" gradientTransform="matrix(-.5 .86603 -.86603 -.5 873.36 370.64)" gradientUnits="userSpaceOnUse" xlink:href="#a"/> <linearGradient id="m" x1="347.78" x2="324.14" y1="496.43" y2="594.92" gradientTransform="matrix(-.5 .86603 -.86603 -.5 873.36 370.64)" gradientUnits="userSpaceOnUse" xlink:href="#a"/> <linearGradient id="l" x1="419.29" x2="404.61" y1="280.87" y2="254.48" gradientUnits="userSpaceOnUse" xlink:href="#a"/> <linearGradient id="k" x1="331.94" x2="222.41" y1="303.53" y2="221.86" gradientUnits="userSpaceOnUse" xlink:href="#a"/> <linearGradient id="j" x1="383.21" x2="302.86" y1="368.65" y2="332.21" gradientUnits="userSpaceOnUse" xlink:href="#a"/> <linearGradient id="i" x1="212.44" x2="296.49" y1="607.83" y2="610.88" gradientTransform="matrix(-.5 -.86603 .86603 -.5 115.7 941.67)" gradientUnits="userSpaceOnUse" xlink:href="#a"/> <linearGradient id="h" x1="464.02" x2="369.58" y1="532.84" y2="608.05" gradientTransform="matrix(-.5 -.86603 .86603 -.5 115.7 941.67)" gradientUnits="userSpaceOnUse" xlink:href="#a"/> <linearGradient id="g" x1="251.18" x2="371.59" y1="545.12" y2="541.41" gradientTransform="matrix(-.5 -.86603 .86603 -.5 115.7 941.67)" gradientUnits="userSpaceOnUse" xlink:href="#a"/> <linearGradient id="f" x1="139.56" x2="311.31" y1="495.99" y2="607.83" gradientUnits="userSpaceOnUse" xlink:href="#a"/> <linearGradient id="e" x1="411.62" x2="335.19" y1="626.63" y2="598.99" gradientUnits="userSpaceOnUse" xlink:href="#a"/> <linearGradient id="d" x1="393.02" x2="294.94" y1="564.02" y2="532.61" gradientUnits="userSpaceOnUse" xlink:href="#a"/> <linearGradient id="b" x1="412.17" x2="277.67" y1="480.63" y2="400.22" gradientUnits="userSpaceOnUse" xlink:href="#a"/> </defs> <g transform="translate(-80.374 -218.37)"> <path d="m439.69 233.69-88.594 64.656c4.2709 5.7496 6.7812 12.881 6.7812 20.594 0 19.084-15.447 34.562-34.531 34.562s-34.562-15.478-34.562-34.562c0-7.8255 2.5837-15.051 6.9688-20.844l-86.031-63.25 11.812 110.22c1.6463-0.24074 3.3182-0.375 5.0312-0.375 19.084 0 34.562 15.478 34.562 34.562s-15.478 34.562-34.562 34.562c-14.825 0-27.438-9.3552-32.344-22.469l-98.531 43.219 100.31 44.438c2.8437-6.5747 7.7573-12.331 14.438-16.188 16.527-9.5421 37.645-3.8712 47.188 12.656s3.8712 37.645-12.656 47.188c-6.7919 3.9213-14.339 5.288-21.562 4.375l-11.719 106.16 88.594-64.656c-4.2713-5.7498-6.7812-12.881-6.7812-20.594 0-19.084 15.447-34.562 34.531-34.562s34.562 15.478 34.562 34.562c0 7.8253-2.6152 15.051-7 20.844l86.062 63.281-11.688-109.09c-7.1112 0.82101-14.543-0.55208-21.219-4.4062-16.527-9.5421-22.198-30.66-12.656-47.188s30.691-22.198 47.219-12.656c6.7873 3.9186 11.74 9.7934 14.562 16.5l97.812-42.906-100.31-44.438c-2.843 6.5793-7.7535 12.328-14.438 16.188-16.527 9.5421-37.645 3.9024-47.188-12.625s-3.8712-37.677 12.656-47.219c6.7826-3.9159 14.317-5.2493 21.531-4.3438l11.75-106.19zm-114 160.81c21.513 0 38.938 17.424 38.938 38.938s-17.424 38.938-38.938 38.938-38.938-17.424-38.938-38.938 17.424-38.938 38.938-38.938z" fill-rule="evenodd" filter="url(#v)" stroke="#000" stroke-width="10"/> <path d="m443.69 237.69-88.594 64.656c4.2709 5.7496 6.7812 12.881 6.7812 20.594 0 19.084-15.447 34.562-34.531 34.562s-34.562-15.478-34.562-34.562c0-7.8255 2.5837-15.051 6.9688-20.844l-86.031-63.25 11.812 110.22c1.6463-0.24074 3.3182-0.375 5.0312-0.375 19.084 0 34.562 15.478 34.562 34.562s-15.478 34.562-34.562 34.562c-14.825 0-27.438-9.3552-32.344-22.469l-98.531 43.219 100.31 44.438c2.8437-6.5747 7.7573-12.331 14.438-16.188 16.527-9.5421 37.645-3.8712 47.188 12.656s3.8712 37.645-12.656 47.188c-6.7919 3.9213-14.339 5.288-21.562 4.375l-11.719 106.16 88.594-64.656c-4.2713-5.7498-6.7812-12.881-6.7812-20.594 0-19.084 15.447-34.562 34.531-34.562s34.562 15.478 34.562 34.562c0 7.8253-2.6152 15.051-7 20.844l86.062 63.281-11.688-109.09c-7.1112 0.82101-14.543-0.55208-21.219-4.4062-16.527-9.5421-22.198-30.66-12.656-47.188s30.691-22.198 47.219-12.656c6.7873 3.9186 11.74 9.7934 14.562 16.5l97.812-42.906-100.31-44.438c-2.843 6.5793-7.7535 12.328-14.438 16.188-16.527 9.5421-37.645 3.9024-47.188-12.625s-3.8712-37.677 12.656-47.219c6.7826-3.9159 14.317-5.2493 21.531-4.3438l11.75-106.19zm-114 160.81c21.513 0 38.938 17.424 38.938 38.938s-17.424 38.938-38.938 38.938-38.938-17.424-38.938-38.938 17.424-38.938 38.938-38.938z" fill="url(#c)" fill-rule="evenodd" stroke="#ccc" stroke-width="10"/> <g opacity=".6"> <path d="m332.03 512.38c-21.788 0-39.531 17.78-39.531 39.562 0 6.4642 1.6014 12.562 4.375 17.969l11.719 0.0937-0.3125-0.4375c-3.6504-4.9138-5.7812-10.997-5.7812-17.625 0-16.386 13.151-29.562 29.531-29.562s29.562 13.182 29.562 29.562c0 6.7113-2.2454 12.852-6 17.812l-0.4375 0.59375 11.75 0.0937c2.9515-5.5314 4.6875-11.815 4.6875-18.5 0-21.788-17.775-39.562-39.562-39.562z" fill="url(#d)"/> <path d="m353.47 572.6-0.90826 1.2172 4.0625 3 86.062 63.281 6.8438 5.0312-12.469-21.594-70.75-52.031c0.20026-0.35038 0.39564-0.70399 0.58599-1.0607" fill="url(#e)"/> <path d="m296.89 569.9c0.22741 0.4433 0.4626 0.88199 0.70534 1.3159l-73.062 53.312-12.094 21.219 6.1875-4.5312 88.594-64.656 4.0938-2.9688" fill="url(#f)"/> <path d="m265.96 476.94c-10.894-18.869-35.164-25.345-54.028-14.454-5.5982 3.2321-10.078 7.6678-13.374 12.773l5.7782 10.196 0.22264-0.48938c2.4303-5.6182 6.6328-10.505 12.373-13.819 14.191-8.1931 32.177-3.3925 40.368 10.794s3.3655 32.193-10.821 40.383c-5.8121 3.3556-12.253 4.4816-18.426 3.7101l-0.73295-0.082 5.7938 10.223c6.266-0.20962 12.575-1.8478 18.365-5.1905 18.869-10.894 25.375-35.175 14.481-54.043z" fill="url(#p)"/> <path d="m224.53 525.61-1.5083-0.17795-0.56683 5.0182-11.772 106.17-0.93531 8.4425 12.466-21.595 9.6854-87.287c0.40357-2e-3 0.8075-9e-3 1.2116-0.0229" fill="url(#q)"/> <path d="m198.57 475.27c-0.27021 0.4186-0.53253 0.84162-0.78691 1.2688l-82.701-36.618-24.423 0.13588 7.0179 3.0929 100.29 44.396 4.6179 2.0609" fill="url(#r)"/> <path d="m263.62 402c10.894-18.869 4.3675-43.125-14.496-54.016-5.5982-3.2321-11.68-4.8941-17.749-5.1955l-5.9405 10.102 0.53514-0.0519c6.0807-0.70438 12.414 0.49161 18.154 3.8058 14.191 8.1931 19.027 26.17 10.836 40.356s-26.197 19.011-40.383 10.821c-5.8121-3.3556-10.008-8.3707-12.426-14.102l-0.29545-0.67576-5.9562 10.129c3.3146 5.3217 7.888 9.9668 13.678 13.309 18.869 10.894 43.15 4.3878 54.043-14.481z" fill="url(#m)"/> <path d="m200.75 390.46-0.60004-1.3952-4.6293 2.0182-97.834 42.892-7.7791 3.4112 24.935-1e-3 80.435-35.256c0.20331 0.34862 0.41186 0.69463 0.62563 1.0378" fill="url(#n)"/> <path d="m231.37 342.8c-0.49762-0.0247-0.99513-0.0404-1.4922-0.0471l-9.6387-89.93-12.329-21.083 0.83043 7.6242 11.697 109.05 0.52413 5.0297" fill="url(#o)"/> <path d="m327.34 362.5c21.788 0 39.531-17.78 39.531-39.562 0-6.4642-1.6014-12.562-4.375-17.969l-11.719-0.0937 0.3125 0.4375c3.6504 4.9138 5.7812 10.997 5.7812 17.625 0 16.386-13.151 29.562-29.531 29.562s-29.562-13.182-29.562-29.562c0-6.7113 2.2454-12.852 6-17.812l0.4375-0.59375-11.75-0.0937c-2.9515 5.5314-4.6875 11.815-4.6875 18.5 0 21.788 17.775 39.562 39.562 39.562z" fill="url(#j)"/> <path d="m305.9 302.28 0.90826-1.2172-4.0625-3-86.062-63.281-6.8438-5.0312 12.469 21.594 70.75 52.031c-0.20026 0.35038-0.39564 0.70399-0.58599 1.0607" fill="url(#k)"/> <path d="m362.49 304.97c-0.22741-0.4433-0.4626-0.88199-0.70534-1.3159l73.062-53.312 12.094-21.219-6.1875 4.5312-88.594 64.656-4.0938 2.9688" fill="url(#l)"/> <path d="m393.41 397.94c10.894 18.869 35.164 25.345 54.028 14.454 5.5982-3.2321 10.078-7.6678 13.374-12.773l-5.7782-10.196-0.22264 0.48938c-2.4303 5.6182-6.6328 10.505-12.373 13.819-14.191 8.1931-32.177 3.3925-40.368-10.794s-3.3655-32.193 10.821-40.383c5.8121-3.3556 12.253-4.4816 18.426-3.7101l0.73295 0.082-5.7938-10.223c-6.266 0.20962-12.575 1.8478-18.365 5.1905-18.869 10.894-25.375 35.175-14.481 54.043z" fill="url(#g)"/> <path d="m434.85 349.26 1.5083 0.17795 0.56683-5.0182 11.772-106.17 0.93531-8.4425-12.466 21.595-9.6854 87.287c-0.40357 2e-3 -0.8075 9e-3 -1.2116 0.0229" fill="url(#h)"/> <path d="m460.81 399.61c0.27021-0.4186 0.53253-0.84162 0.78691-1.2688l82.701 36.618 24.423-0.13588-7.0179-3.0929-100.29-44.396-4.6179-2.0609" fill="url(#i)"/> <path d="m395.76 472.88c-10.894 18.869-4.3675 43.125 14.496 54.016 5.5982 3.2321 11.68 4.8941 17.749 5.1955l5.9405-10.102-0.53514 0.0519c-6.0807 0.70438-12.414-0.49161-18.154-3.8058-14.191-8.1931-19.027-26.17-10.836-40.356s26.197-19.011 40.383-10.821c5.8121 3.3556 10.008 8.3707 12.426 14.102l0.29545 0.67576 5.9562-10.129c-3.3146-5.3217-7.888-9.9668-13.678-13.309-18.869-10.894-43.15-4.3878-54.043 14.481z" fill="url(#s)"/> <path d="m458.63 484.42 0.60004 1.3952 4.6293-2.0182 97.834-42.892 7.7791-3.4112-24.935 1e-3 -80.435 35.256c-0.20331-0.34862-0.41186-0.69463-0.62563-1.0378" fill="url(#u)"/> <path d="m428.01 532.08c0.49762 0.0247 0.99513 0.0404 1.4922 0.0471l9.6387 89.93 12.329 21.083-0.83043-7.6242-11.697-109.05-0.52413-5.0297" fill="url(#t)"/> </g> <path transform="translate(-.78391 3.2956)" d="m369.42 434.14c0 21.513-17.44 38.953-38.953 38.953s-38.953-17.44-38.953-38.953 17.44-38.953 38.953-38.953 38.953 17.44 38.953 38.953z" fill="none" opacity=".6" stroke="url(#b)" stroke-linecap="round" stroke-width="10"/> </g> </svg>