<?xml version='1.0' encoding='utf-8'?>
<svg xmlns="http://www.w3.org/2000/svg" viewBox="0 0 177.58 96.496"> <defs> <clipPath id="i"> <path d="m374.81 596.28c-9.5244 3.6435-12.839-15.288-19.944-22.828-3.8732-4.1104-8.7164-7.5058-13.961-9.3387-4.1084-1.436-8.649-1.4642-12.964-1.0376-3.7729 0.37306-7.727 1.0707-10.969 3.1129-2.7163 1.711-4.8815 4.4098-6.4818 7.2634-1.9338 3.4484-3.8328 7.4373-3.4902 11.414 0.57099 6.6265 3.9728 13.496 8.9747 17.64 14.929 12.368 28.776 24.861 43.876 36.317 5.8105 4.4082 11.164 9.9749 17.949 12.452 7.2414 2.6432 15.282 2.6656 22.935 2.0753 7.8392-0.60466 15.549-2.9085 22.935-5.707 4.5397-1.72 9.3579-3.3986 12.964-6.7446 16.264-15.093 27.804-29.618 41.882-45.656 4.6214-5.2649 7.2008-12.812 5.4846-19.715-2.2234-8.9429-10.017-14.23-18.448-17.121-5.3693-1.8408-11.68-1.603-16.952 0.51882-5.7165 2.3004-10.666 7.074-13.961 12.452-4.6392 7.5715-3.8732 17.564-6.9804 25.941-0.80285 2.1646-1.0922 5.437-2.493 3.6317-4.4389-5.7208-8.1378-8.6315-13.462-10.376-5.0826-1.6657-10.68-1.82-15.955-1.0376-8.7437 1.2967-12.605 3.5558-20.941 6.7446z"/> </clipPath> <filter id="b"> <feGaussianBlur in="SourceGraphic" result="result0" stdDeviation="6"/> <feDiffuseLighting result="result5" surfaceScale="10"> <feDistantLight azimuth="235" elevation="25"/> </feDiffuseLighting> <feComposite in="result5" in2="SourceGraphic" k1="1" k3=".6" operator="arithmetic" result="result4"/> </filter> <filter id="g"> <feGaussianBlur stdDeviation="1.5709"/> </filter> <filter id="e"> <feGaussianBlur stdDeviation="1.3913"/> </filter> <filter id="h" x="-.22302" y="-.42639" width="1.446" height="1.8528"> <feGaussianBlur stdDeviation="3.7634"/> </filter> <filter id="a" x="-.21223" y="-.07658" width="1.4245" height="1.1532"> <feGaussianBlur stdDeviation="1.5475"/> </filter> <filter id="f" x="-.06113" y="-.13422" width="1.1223" height="1.2684"> <feGaussianBlur stdDeviation="1.2862"/> </filter> <filter id="d" x="-.06891" y="-.10756" width="1.1378" height="1.2151"> <feGaussianBlur stdDeviation="1.8375"/> </filter> <filter id="c" x="-.05897" y="-.14595" width="1.1179" height="1.2919"> <feGaussianBlur stdDeviation="1.2163"/> </filter> </defs> <g transform="translate(-306.96 -557.17)" clip-path="url(#i)" filter="url(#b)"> <path d="m374.5 596.86c-9.5512 3.5113-12.875-14.734-20-22-3.8841-3.9613-8.741-7.2335-14-9-4.1199-1.3839-8.6734-1.4111-13-1-3.7835 0.35953-7.7487 1.0319-11 3-2.724 1.6489-4.8952 4.2498-6.5 7-1.9393 3.3234-3.8436 7.1676-3.5 11 0.5726 6.3862 3.9839 13.006 9 17 14.971 11.92 28.857 23.959 44 35 5.8268 4.2483 11.195 9.6131 18 12 7.2618 2.5473 15.325 2.5689 23 2 7.8612-0.58273 15.593-2.803 23-5.5 4.5524-1.6576 9.3843-3.2753 13-6.5 16.31-14.546 27.883-28.544 42-44 4.6344-5.0739 7.2211-12.347 5.5-19-2.2296-8.6185-10.045-13.714-18.5-16.5-5.3844-1.7741-11.713-1.5448-17 0.5-5.7326 2.217-10.696 6.8174-14 12-4.6523 7.2969-3.8841 16.927-7 25-0.80511 2.0861-1.0953 5.2398-2.5 3.5-4.4514-5.5133-8.1607-8.3184-13.5-10-5.0969-1.6053-10.71-1.754-16-1-8.7683 1.2497-12.641 3.4269-21 6.5z" fill="#cf0" opacity=".5856"/> <path transform="matrix(1.2411 0 0 1.0962 -99.035 -64.818)" d="m418.5 608.36c0 5.8496-9.0662 10.592-20.25 10.592s-20.25-4.742-20.25-10.592 9.0662-10.592 20.25-10.592 20.25 4.742 20.25 10.592z" fill="#102000" filter="url(#h)" opacity=".8018" stroke="#000"/> <path transform="matrix(.88889 0 0 .84517 43.5 88.142)" d="m418.5 608.36c0 5.8496-9.0662 10.592-20.25 10.592s-20.25-4.742-20.25-10.592 9.0662-10.592 20.25-10.592 20.25 4.742 20.25 10.592z" fill="#102000" stroke="#000"/> <path transform="matrix(1.1003 0 0 .8101 -35.23 125.05)" d="m355.91 630.16 10.591-33.297 6 2.5-1.5 46z" fill="#666" filter="url(#a)" opacity=".7703"/> <path transform="matrix(-1.1003 0 0 .86019 823.23 90.483)" d="m351.82 638.83 14.681-41.965 6 2.5-2.8633 48.207z" fill="#666" filter="url(#a)" opacity=".7703"/> <path d="m369.5 607.86-5.5-7-4.5-9s-6-8.5-6-10.5-9-8-9-8l-12-6-12.5 0.5-7 5.5-6 7v4.5l3-5.5 7-7.5 13.5-1.5 12 3 9 10 9 17 6 11z" fill="#fff" filter="url(#g)"/> <path d="m481.5 585.36-1-10.5-10-9-8-2.5-9.5-1-12 4.5-6.5 8-3.5 8 7.5-9 6.5-6 9-2.5 9.5 0.5 7 3.5 6 6z" fill="#fff" filter="url(#f)"/> <path d="m374 647.86 1-35 15 4 13-1 11-3 2.5 33-20 4z" fill="#fff" filter="url(#e)" opacity=".5811"/> <path d="m366.5 605.36c-8.2049-0.20323-7.6274-14.554-12-21.5-1.8477-2.9349-3.3996-6.2052-6-8.5-4.2488-3.7495-9.474-6.7454-15-8-3.7417-0.84951-7.806-0.53751-11.5 0.5-5.3145 1.4926-14.5 8-14.5 8s8.4232-8.9699 14-11c4.8575-1.7682 10.399-1.3402 15.5-0.5 2.8101 0.46291 5.5066 1.6238 8 3 4.5819 2.5289 9.132 5.4943 12.5 9.5 3.502 4.165 4.2009 10.173 7.5 14.5 1.7877 2.3449 6.1078 3.0776 6.5 6 0.41822 3.1167-1.8563 8.0779-5 8z" fill="#333" filter="url(#d)" opacity=".8"/> <path d="m482 578.86c-4.7505-0.73754-4.2669-8.971-8-12-3.4848-2.8276-8.0715-4.274-12.5-5-2.965-0.48612-6.0746-0.18556-9 0.5-3.7074 0.86884-7.3841 2.3112-10.5 4.5-2.7983 1.9657-7 7.5-7 7.5s4.3676-8.6277 8-11.5c3.143-2.4854 6.5367-3.4102 10.5-4s8.1226-0.98268 12 0c4.4097 1.1176 8.7033 3.3653 12 6.5 3.2521 3.0923 7.7797 7.0806 7 11.5-0.18542 1.051-1.4454 2.1637-2.5 2z" filter="url(#c)" opacity=".8"/> </g> </svg>